# xmcd CD database file
#
# Track frame offsets:
#	150
#	17372
#	32881
#	56431
#	69365
#	89145
#	107797
#	134254
#	154461
#	162665
#	183782
#	198982
#	217284
#
# Disc length: 3123 seconds
#
# Revision: 0
# Processed by: cddbd v1.5.1PL0 Copyright (c) Steve Scherf et al.
# Submitted via: CDex 1.51
#
DISCID=bc0c310d
DTITLE=Jet CD - Puffy
DYEAR=1900
DGENRE=JPop
TTITLE0=Jet Keisatsu
TTITLE1=Korega Watashi No Ikirumichi
TTITLE2=Cake Is Love
TTITLE3=Ai No Shirushi
TTITLE4=Haru No Asa
TTITLE5=Lemon Kid
TTITLE6=Shoubijin
TTITLE7=Nehorina Hahorina
TTITLE8=Tetsugaku
TTITLE9=Puffy de Rio
TTITLE10=Circuit No Musume
TTITLE11=Nagisa Ni Matsuwaru Etc.
TTITLE12=Mother
EXTD=
EXTT0=
EXTT1=
EXTT2=
EXTT3=
EXTT4=
EXTT5=
EXTT6=
EXTT7=
EXTT8=
EXTT9=
EXTT10=
EXTT11=
EXTT12=
PLAYORDER=
